#!OML:ASF E:\Style4\Style4.ASF
:FULLY-SPECIFIED
:DEGREES
1000
root 0.221086 17.06 -0.834195 6.37097 -1.86854 3.73658
lowerback 7.07819 2.72826 2.88573
upperback -1.67681 3.9122 0.0858949
thorax -5.5286 1.8363 -1.98067
lowerneck 1.08593 4.82113 -3.40821
upperneck 8.31843 6.27407 3.35295
head 2.21866 3.11145 1.73625
rclavicle 2.11706e-014 2.06736e-014
rhumerus -92.5293 54.0283 -127.39
rradius 84.1332
rwrist 0.0425246
rhand -7.36017 34.7877
rfingers 7.12502
rthumb 18.5244 5.64974
lclavicle 2.11706e-014 2.06736e-014
lhumerus 2.01846 30.4675 7.43312
lradius 64.4843
lwrist -14.4238
lhand -13.1137 34.2528
lfingers 7.12502
lthumb 12.9836 63.8288
rfemur -28.1608 3.52863 13.3418
rtibia 50.0473
rfoot -26.4483 -14.1242
rtoes -13.6913
lfemur -26.1431 -0.860643 -23.6472
ltibia 47.4244
lfoot -26.4879 7.94894
ltoes -15.6451
1001
root 0.225287 17.0608 -0.835203 6.34626 -1.86929 3.73275
lowerback 7.07027 2.72636 2.89795
upperback -1.63653 3.90924 0.0809036
thorax -5.48076 1.83576 -1.99042
lowerneck 1.11396 4.74285 -3.49074
upperneck 8.34305 6.16218 3.4586
head 2.2205 3.05567 1.7833
rclavicle -5.64548e-014 6.36111e-015
rhumerus -92.4238 54.0273 -127.276
rradius 84.113
rwrist 0.0855901
rhand -7.53238 34.8139
rfingers 7.12502
rthumb 18.3587 5.66023
lclavicle -5.64548e-014 6.36111e-015
lhumerus 1.84138 30.5863 7.10803
lradius 65.1868
lwrist -14.1971
lhand -13.4538 34.3329
lfingers 7.12502
lthumb 12.6557 63.9295
rfemur -28.1351 3.54337 13.3305
rtibia 50.0483
rfoot -26.4788 -14.1411
rtoes -13.775
lfemur -26.1077 -0.84405 -23.6605
ltibia 47.4022
lfoot -26.5058 8.00396
ltoes -15.8662
1002
root 0.229915 17.0594 -0.836489 6.33677 -1.90897 3.80667
lowerback 7.05764 2.74023 2.83788
upperback -1.61754 3.91927 0.0411411
thorax -5.45417 1.84282 -1.99793
lowerneck 1.04816 4.66469 -3.58029
upperneck 8.49668 6.04977 3.60044
head 2.28078 3.00049 1.85039
rclavicle -3.61788e-014 -1.59028e-014
rhumerus -92.2931 53.9613 -127.15
rradius 84.0847
rwrist 0.121873
rhand -7.67647 34.8775
rfingers 7.12502
rthumb 18.2201 5.71086
lclavicle -3.61788e-014 -1.59028e-014
lhumerus 1.70298 30.7017 6.81775
lradius 65.8669
lwrist -14.0728
lhand -13.4569 34.5445
lfingers 7.12502
lthumb 12.6528 64.1412
rfemur -28.1621 3.55505 13.2274
rtibia 50.1074
rfoot -26.4687 -14.1635
rtoes -14.0645
lfemur -26.0847 -0.825336 -23.7665
ltibia 47.3961
lfoot -26.5746 8.03813
ltoes -16.0374
1003
root 0.236738 17.0583 -0.838352 6.32227 -1.9787 3.87665
lowerback 7.0646 2.75004 2.78747
upperback -1.59026 3.92566 0.00898943
thorax -5.43013 1.84786 -2.00336
lowerneck 0.922451 4.60529 -3.61489
upperneck 8.70133 5.96806 3.66546
head 2.37162 2.96049 1.8871
rclavicle -2.57426e-014 -1.27222e-014
rhumerus -92.1875 53.9534 -127.066
rradius 84.0773
rwrist 0.102283
rhand -7.64602 34.8996
rfingers 7.12502
rthumb 18.2494 5.73569
lclavicle -2.57426e-014 -1.27222e-014
lhumerus 1.46035 30.8554 6.50462
lradius 66.6236
lwrist -13.9646
lhand -13.2503 34.6416
lfingers 7.12502
lthumb 12.8519 64.2259
rfemur -28.1688 3.54638 13.1188
rtibia 50.2101
rfoot -26.4113 -14.0186
rtoes -14.0454
lfemur -26.0654 -0.776889 -23.8794
ltibia 47.3986
lfoot -26.5945 8.09202
ltoes -16.17
1004
root 0.242308 17.0572 -0.840876 6.32921 -2.00935 3.82353
lowerback 7.06232 2.75657 2.84912
upperback -1.57233 3.93976 0.0145304
thorax -5.40567 1.85358 -2.03265
lowerneck 0.908868 4.54557 -3.6116
upperneck 8.78082 5.88454 3.70765
head 2.40273 2.91993 1.90228
rclavicle 4.44284e-014 1.51076e-014
rhumerus -92.0747 53.9439 -126.978
rradius 84.067
rwrist 0.0529399
rhand -7.54231 34.8769
rfingers 7.12502
rthumb 18.3492 5.72229
lclavicle 4.44284e-014 1.51076e-014
lhumerus 1.22615 30.9591 6.23166
lradius 67.37
lwrist -13.8673
lhand -13.2436 34.5482
lfingers 7.12502
lthumb 12.8583 64.1321
rfemur -28.1411 3.5576 13.1433
rtibia 50.3134
rfoot -26.4329 -13.572
rtoes -13.1534
lfemur -26.0979 -0.733789 -23.8438
ltibia 47.4254
lfoot -26.5728 8.09911
ltoes -16.18
1005
root 0.246323 17.0558 -0.843936 6.31196 -2.01628 3.81257
lowerback 7.09937 2.75712 2.8595
upperback -1.56788 3.94307 0.0243325
thorax -5.42189 1.85467 -2.03065
lowerneck 0.902358 4.46661 -3.67222
upperneck 8.90424 5.77382 3.77375
head 2.44612 2.86435 1.93707
rclavicle -1.0466e-013 6.36111e-015
rhumerus -92.0132 53.9319 -126.94
rradius 84.0435
rwrist 0.0478252
rhand -7.45472 34.8585
rfingers 7.12502
rthumb 18.4334 5.71194
lclavicle -1.0466e-013 6.36111e-015
lhumerus 0.923187 30.9622 5.96643
lradius 68.1469
lwrist -13.8337
lhand -13.2936 34.6106
lfingers 7.12502
lthumb 12.8102 64.1975
rfemur -28.1451 3.59156 13.1331
rtibia 50.348
rfoot -26.5689 -13.4306
rtoes -12.5885
lfemur -26.1122 -0.725285 -23.8455
ltibia 47.4589
lfoot -26.5759 8.10314
ltoes -16.1657
1006
root 0.250286 17.0534 -0.847105 6.28994 -2.0588 3.81997
lowerback 7.14202 2.76045 2.84783
upperback -1.56171 3.94806 0.0307621
thorax -5.44059 1.85721 -2.02034
lowerneck 0.871004 4.39868 -3.7242
upperneck 9.05541 5.67979 3.81625
head 2.50369 2.81674 1.96451
rclavicle 6.4605e-015 -4.77083e-015
rhumerus -91.9755 53.9429 -126.905
rradius 84.0352
rwrist 0.100245
rhand -7.37329 34.9156
rfingers 7.12502
rthumb 18.5118 5.77639
lclavicle 6.4605e-015 -4.77083e-015
lhumerus 0.581644 30.9391 5.69466
lradius 68.9398
lwrist -13.7879
lhand -13.2468 34.6837
lfingers 7.12502
lthumb 12.8553 64.2678
rfemur -28.2372 3.601 13.1242
rtibia 50.3109
rfoot -26.5273 -13.8601
rtoes -13.5465
lfemur -26.113 -0.703224 -23.8725
ltibia 47.4948
lfoot -26.6114 8.10848
ltoes -16.2349
1007
root 0.255408 17.0521 -0.849373 6.28586 -2.12757 3.81864
lowerback 7.14349 2.76862 2.83965
upperback -1.5495 3.95873 0.0454469
thorax -5.42964 1.86332 -2.00138
lowerneck 0.7851 4.3465 -3.81802
upperneck 9.23023 5.60588 3.90331
head 2.57636 2.77931 2.01659
rclavicle -1.36167e-014 2.06736e-014
rhumerus -92.0233 53.979 -126.94
rradius 84.0136
rwrist 0.146447
rhand -7.39437 34.9581
rfingers 7.12502
rthumb 18.4915 5.81697
lclavicle -1.36167e-014 2.06736e-014
lhumerus 0.198346 30.8947 5.43706
lradius 69.7881
lwrist -13.7182
lhand -13.0883 34.866
lfingers 7.12502
lthumb 13.0081 64.4404
rfemur -28.2826 3.65187 13.1011
rtibia 50.2348
rfoot -26.4411 -14.0103
rtoes -13.961
lfemur -26.1299 -0.666412 -23.897
ltibia 47.5237
lfoot -26.6382 8.11727
ltoes -16.2205
1008
root 0.259437 17.0501 -0.850573 6.25001 -2.19047 3.84771
lowerback 7.16198 2.78321 2.78488
upperback -1.53018 3.97411 0.060421
thorax -5.42372 1.87321 -1.95748
lowerneck 0.762688 4.29783 -3.91502
upperneck 9.36062 5.53477 3.99438
head 2.62265 2.74304 2.06722
rclavicle 3.32964e-014 -3.18055e-015
rhumerus -92.0837 53.9824 -126.953
rradius 84.0237
rwrist 0.168769
rhand -7.34248 35.022
rfingers 7.12502
rthumb 18.5414 5.88561
lclavicle 3.32964e-014 -3.18055e-015
lhumerus -0.163729 30.8342 5.23524
lradius 70.5973
lwrist -13.6309
lhand -13.1567 34.8642
lfingers 7.12502
lthumb 12.9421 64.4428
rfemur -28.2504 3.70115 13.0484
rtibia 50.1781
rfoot -26.3403 -14.0389
rtoes -14.0157
lfemur -26.0968 -0.652141 -23.9463
ltibia 47.5391
lfoot -26.6779 8.15992
ltoes -16.1225
1009
root 0.263925 17.0493 -0.85171 6.22914 -2.22502 3.81493
lowerback 7.17562 2.78749 2.81954
upperback -1.51456 3.98441 0.0860609
thorax -5.41411 1.87789 -1.95154
lowerneck 0.803896 4.25601 -3.97074
upperneck 9.42378 5.47415 4.03751
head 2.63667 2.71175 2.09093
rclavicle -4.87022e-015 -1.03368e-014
rhumerus -92.1826 54.007 -126.984
rradius 84.066
rwrist 0.116835
rhand -7.26344 35.1506
rfingers 7.12502
rthumb 18.6174 6.02148
lclavicle -4.87022e-015 -1.03368e-014
lhumerus -0.55106 30.8096 5.08461
lradius 71.401
lwrist -13.6175
lhand -13.3215 34.5693
lfingers 7.12502
lthumb 12.7832 64.158
rfemur -28.2353 3.72349 13.0691
rtibia 50.1571
rfoot -26.3681 -14.0342
rtoes -14.0154
lfemur -26.0732 -0.647368 -23.9315
ltibia 47.5432
lfoot -26.6871 8.17597
ltoes -16.0287
1010
root 0.270385 17.0471 -0.853477 6.21788 -2.26689 3.83667
lowerback 7.20223 2.79332 2.8339
upperback -1.51929 3.99392 0.0748942
thorax -5.43196 1.88148 -1.97391
lowerneck 0.866264 4.20836 -3.97774
upperneck 9.48891 5.40568 4.0578
head 2.64959 2.67737 2.0979
rclavicle 1.49089e-014 -6.36111e-015
rhumerus -92.2661 54.0099 -127.073
rradius 84.0758
rwrist 0.0540708
rhand -7.2511 35.1762
rfingers 7.12502
rthumb 18.6293 6.04829
lclavicle 1.49089e-014 -6.36111e-015
lhumerus -0.945342 30.7125 4.88776
lradius 72.249
lwrist -13.4665
lhand -13.2456 34.4883
lfingers 7.12502
lthumb 12.8564 64.0723
rfemur -28.2499 3.72602 13.0074
rtibia 50.181
rfoot -26.4465 -13.8955
rtoes -13.8304
lfemur -26.069 -0.642254 -23.9843
ltibia 47.5394
lfoot -26.7012 8.13311
ltoes -15.7762
